
        <svg xmlns="http://www.w3.org/2000/svg" xmlns:xlink="http://www.w3.org/1999/xlink" version="1.1" width="3159.993359671429" height="491.67874427039345" viewBox="0 0 3159.993359671429 491.67874427039345">
			
			<g transform="scale(7.999667983571452) translate(10, 10)">
				<defs id="SvgjsDefs1222"/><g id="SvgjsG1223" featureKey="nRdZyp-0" transform="matrix(1.6251708104224623,0,0,1.6251708104224623,-0.009892678865161203,-17.274525253652286)" fill="#fff"><g xmlns="http://www.w3.org/2000/svg"><path d="M47.93,23.687c-0.018-0.05-0.02-0.102-0.043-0.148c-0.25-0.477-6.299-11.679-24.369-11.679   c-14.087,0-22.744,10.804-23.289,11.503c0,0-0.001,0.002-0.002,0.002c-0.005,0.008-0.016,0.021-0.02,0.025   c-0.029,0.038-0.037,0.083-0.061,0.123c-0.039,0.07-0.082,0.136-0.104,0.212c-0.019,0.062-0.016,0.124-0.021,0.187   c-0.006,0.065-0.02,0.128-0.013,0.193c0.008,0.076,0.038,0.146,0.063,0.219c0.016,0.046,0.017,0.095,0.04,0.14   c0.249,0.477,6.298,11.678,24.368,11.678c14.087,0,22.746-10.805,23.289-11.503c0,0,0.002-0.001,0.002-0.002   c0.006-0.007,0.016-0.02,0.02-0.024c0.029-0.038,0.039-0.084,0.061-0.125c0.039-0.068,0.082-0.134,0.104-0.21   c0.02-0.061,0.016-0.123,0.021-0.186c0.006-0.065,0.02-0.129,0.014-0.195C47.982,23.823,47.953,23.756,47.93,23.687z M24,35.061   c-6.097,0-11.058-4.961-11.058-11.06S17.903,12.94,24,12.94c6.099,0,11.062,4.962,11.062,11.061S30.1,35.061,24,35.061z"/><path d="M24,18.606c-2.975,0-5.394,2.42-5.394,5.395c0,2.974,2.419,5.394,5.394,5.394c2.972,0,5.392-2.42,5.392-5.394   C29.393,21.026,26.973,18.606,24,18.606z"/></g></g><g id="SvgjsG1224" featureKey="Q4qmbg-0" transform="matrix(1.6695626533992267,0,0,1.6695626533992267,102.1986106906335,-4.1492017802531205)" fill="#fff"><path d="M3.48 13.24 c0 1.18 5 0.62 5 3.74 c0 2.04 -1.8 3.18 -4.04 3.18 c-1.42 0 -2.84 -0.7 -3.96 -1.82 l1.94 -1.94 c0.56 0.68 1.36 1.2 2.02 1.26 s1.22 -0.22 1.32 -0.52 c0.24 -0.76 -1.14 -0.8 -1.56 -0.92 c-1.58 -0.48 -3.42 -1.14 -3.42 -3.1 c0 -2.34 2.44 -3.14 3.66 -3.14 c1.4 0 2.82 0.64 3.96 1.8 l-1.92 1.92 c-0.52 -0.68 -1.42 -1.22 -2.04 -1.22 c-0.32 0 -0.96 0.12 -0.96 0.76 z M12.683895833333333 10.12 l0 9.88 l-2.96 0 l0 -9.88 l2.96 0 z M12.763895833333333 7.279999999999999 c0 0.84 -0.68 1.5 -1.58 1.5 c-0.86 0 -1.56 -0.66 -1.56 -1.5 c0 -0.82 0.7 -1.46 1.56 -1.46 c0.9 0 1.58 0.64 1.58 1.46 z M21.107791666666664 10.12 l2.96 0 l0 9.58 c0 2.92 -2.14 5.28 -5.22 5.28 c-1.7 0 -2.98 -0.78 -4.1 -2.02 l2.1 -1.9 c0.62 0.92 1.18 1.48 2 1.48 c1.4 0 2.24 -1.54 2.24 -3.22 c-0.36 0.48 -1.42 0.82 -2.04 0.82 c-2.88 0 -5 -2.16 -5 -5.08 s2.12 -5.1 5 -5.1 c0.68 0 1.74 0.36 2.06 0.82 l0 -0.66 z M19.247791666666664 17.92 c1.34 0 2.26 -1.54 2.26 -2.86 c0 -1.34 -0.9 -2.86 -2.26 -2.86 c-1.22 0 -2.24 1.28 -2.24 2.86 c0 1.56 1.02 2.86 2.24 2.86 z M35.2116875 14.36 l0 5.64 l-2.96 0 l0 -5.64 c0 -1.52 -0.4 -2.16 -1.56 -2.16 c-1.2 0 -1.9 0.64 -1.9 2.16 l0 5.64 l-2.96 0 l0 -14.52 l2.96 0 l0 5.74 c0.38 -1.1 1.82 -1.24 2.68 -1.24 c2.76 0 3.74 1.34 3.74 4.38 z M40.43558333333333 15.8 c0 0.72 -0.02 1.92 1.08 1.92 c0.54 0 0.88 -0.22 1.26 -0.5 l0 2.44 c-0.46 0.26 -1.02 0.5 -1.62 0.5 c-2.54 0 -3.68 -1.08 -3.68 -4.36 l0 -3.24 l-1.1 0 l0 -2.44 l1.1 0 l0 -2.84 l2.96 0 l0 2.84 l2.34 0 l0 2.44 l-2.34 0 l0 3.24 z M55.30337499999998 9.98 c2.9 0 4.82 2.18 4.82 5.1 s-2.12 5.08 -5.02 5.08 c-0.64 0 -1.72 -0.36 -2.04 -0.82 l0 0.66 l-2.96 0 l0 -14.52 l2.96 0 l0 5.34 c0.34 -0.5 1.62 -0.84 2.24 -0.84 z M54.90337499999998 17.92 c1.24 0 2.26 -1.28 2.26 -2.84 c0 -1.58 -1.02 -2.86 -2.26 -2.86 c-1.36 0 -2.24 1.54 -2.24 2.86 s0.9 2.84 2.24 2.84 z M71.46727083333332 15.08 l0 0.66 l-7.04 0 c0 1.16 1.18 1.98 2.16 1.98 c0.96 0 1.84 -0.38 2.3 -1.22 l1.98 1.82 c-0.8 1.08 -2.02 1.84 -4.28 1.84 c-3.24 0 -5.22 -2.16 -5.22 -5.08 s1.92 -5.1 5.04 -5.1 s5.06 2.14 5.06 5.1 z M64.48727083333331 13.86 l3.88 0 c-0.16 -0.94 -0.84 -1.44 -1.96 -1.44 c-1.08 0 -1.74 0.58 -1.92 1.44 z M79.37116666666664 10.12 l3.08 0 s-2.56 6.02 -4.06 9.6 c-1.34 3.18 -2.32 5.1 -4.46 5.1 c-0.88 0 -1.94 -0.86 -2.24 -1.1 l0.86 -2.44 c0.4 0.38 0.92 0.62 1.34 0.62 c1.02 0 1.56 -2.06 1.9 -3.26 l-3.62 -8.52 l3.08 0 l2.06 4.94 c0.66 -1.6 1.42 -3.42 2.06 -4.94 z M87.93506249999997 12.42 c-1.22 0 -2.24 1.08 -2.24 2.66 c0 1.56 1.02 2.64 2.24 2.64 c1.24 0 2.26 -1.08 2.26 -2.64 c0 -1.58 -1.02 -2.66 -2.26 -2.66 z M87.93506249999997 9.98 c2.9 0 5.22 2.18 5.22 5.1 s-2.32 5.08 -5.22 5.08 c-2.88 0 -5.2 -2.16 -5.2 -5.08 s2.32 -5.1 5.2 -5.1 z M103.59895833333331 14.36 l0 5.64 l-2.96 0 l0 -5.64 c0 -1.5 -0.4 -2.16 -1.56 -2.16 c-1.2 0 -1.9 0.66 -1.9 2.16 l0 5.64 l-2.96 0 l0 -9.88 l2.96 0 l0 0.94 c0.76 -0.74 1.8 -1.08 2.66 -1.08 c2.78 0 3.76 1.34 3.76 4.38 z M104.64285416666664 15.08 c0 -2.92 1.92 -5.1 4.82 -5.1 c0.64 0 1.9 0.34 2.24 0.82 l0 -5.32 l2.98 0 l0 14.52 l-2.98 0 l0 -0.66 c-0.36 0.46 -1.38 0.82 -2.04 0.82 c-2.9 0 -5.02 -2.16 -5.02 -5.08 z M107.62285416666664 15.08 c0 1.56 1 2.84 2.24 2.84 c1.36 0 2.24 -1.52 2.24 -2.84 s-0.86 -2.86 -2.24 -2.86 c-1.24 0 -2.24 1.28 -2.24 2.86 z M124.11064583333331 13.24 c0 1.18 5 0.62 5 3.74 c0 2.04 -1.8 3.18 -4.04 3.18 c-1.42 0 -2.84 -0.7 -3.96 -1.82 l1.94 -1.94 c0.56 0.68 1.36 1.2 2.02 1.26 s1.22 -0.22 1.32 -0.52 c0.24 -0.76 -1.14 -0.8 -1.56 -0.92 c-1.58 -0.48 -3.42 -1.14 -3.42 -3.1 c0 -2.34 2.44 -3.14 3.66 -3.14 c1.4 0 2.82 0.64 3.96 1.8 l-1.92 1.92 c-0.52 -0.68 -1.42 -1.22 -2.04 -1.22 c-0.32 0 -0.96 0.12 -0.96 0.76 z M133.31454166666666 10.12 l0 9.88 l-2.96 0 l0 -9.88 l2.96 0 z M133.39454166666664 7.279999999999999 c0 0.84 -0.68 1.5 -1.58 1.5 c-0.86 0 -1.56 -0.66 -1.56 -1.5 c0 -0.82 0.7 -1.46 1.56 -1.46 c0.9 0 1.58 0.64 1.58 1.46 z M141.73843749999997 10.12 l2.96 0 l0 9.58 c0 2.92 -2.14 5.28 -5.22 5.28 c-1.7 0 -2.98 -0.78 -4.1 -2.02 l2.1 -1.9 c0.62 0.92 1.18 1.48 2 1.48 c1.4 0 2.24 -1.54 2.24 -3.22 c-0.36 0.48 -1.42 0.82 -2.04 0.82 c-2.88 0 -5 -2.16 -5 -5.08 s2.12 -5.1 5 -5.1 c0.68 0 1.74 0.36 2.06 0.82 l0 -0.66 z M139.8784375 17.92 c1.34 0 2.26 -1.54 2.26 -2.86 c0 -1.34 -0.9 -2.86 -2.26 -2.86 c-1.22 0 -2.24 1.28 -2.24 2.86 c0 1.56 1.02 2.86 2.24 2.86 z M155.8423333333333 14.36 l0 5.64 l-2.96 0 l0 -5.64 c0 -1.52 -0.4 -2.16 -1.56 -2.16 c-1.2 0 -1.9 0.64 -1.9 2.16 l0 5.64 l-2.96 0 l0 -14.52 l2.96 0 l0 5.74 c0.38 -1.1 1.82 -1.24 2.68 -1.24 c2.76 0 3.74 1.34 3.74 4.38 z M161.06622916666663 15.8 c0 0.72 -0.02 1.92 1.08 1.92 c0.54 0 0.88 -0.22 1.26 -0.5 l0 2.44 c-0.46 0.26 -1.02 0.5 -1.62 0.5 c-2.54 0 -3.68 -1.08 -3.68 -4.36 l0 -3.24 l-1.1 0 l0 -2.44 l1.1 0 l0 -2.84 l2.96 0 l0 2.84 l2.34 0 l0 2.44 l-2.34 0 l0 3.24 z"/></g>
			</g>
		</svg>
	